<?xml version="1.0" encoding="utf-8" ?><svg xmlns="http://www.w3.org/2000/svg" xmlns:xlink="http://www.w3.org/1999/xlink" width="1108" height="1118" viewBox="0 0 1108 1118"><clipPath id="cl_3"><rect width="1108" height="1118"/></clipPath><g clip-path="url(#cl_3)"><defs><linearGradient id="gradient_0" gradientUnits="userSpaceOnUse" x1="623.83832" y1="151.39502" x2="630.42853" y2="1174.0126"><stop offset="0" stop-color="#FF4E00"/><stop offset="1" stop-color="#C10034"/></linearGradient></defs><path fill="url(#gradient_0)" transform="translate(-73 -63)" d="M80.8365 444.384C80.4037 440.151 80.6863 429.486 80.6944 425.017L80.7423 388.398L80.7271 335.857C80.7256 308.038 80.2956 287.065 86.8256 259.766C102.046 193.99 143.041 137.082 200.609 101.812C228.76 84.635 264.006 72.9903 296.711 68.7317C311.76 66.7721 329.209 67.0887 344.362 67.1157L397.969 67.158L602.135 67.1673L834.351 67.0546L906.877 67.145C937.436 67.215 962.443 65.8916 992.413 73.1626C1052.67 87.3483 1104.71 125.13 1136.86 178.033C1143.33 187.756 1147.87 197.281 1152.8 207.741C1173.64 251.944 1175.85 295.572 1174.31 343.796C1174.93 390.785 1174.44 438.795 1174.43 485.846L1174.41 749.911L1174.35 876.425C1174.34 913.655 1176.51 950.535 1168.7 986.844C1159.22 1029.62 1137.85 1068.85 1107.05 1100.01C1061.81 1146.23 1000.13 1172.69 935.457 1173.62L767.807 1173.96L505.03 1173.98L381.782 1173.94C347.274 1173.91 309.091 1175.86 275.727 1168.74C229.36 1159.27 186.743 1136.53 153.058 1103.28C107.689 1058.89 80.8824 999.922 80.6937 936.278C80.3814 830.905 80.481 725.451 80.5312 620.076L80.6048 504.553C80.6174 486.69 79.8707 461.85 80.8365 444.384Z"/><defs><linearGradient id="gradient_1" gradientUnits="userSpaceOnUse" x1="613.50079" y1="54.404579" x2="628.92188" y2="390.67572"><stop offset="0" stop-color="#FD7B00"/><stop offset="1" stop-color="#FE4008"/></linearGradient></defs><path fill="url(#gradient_1)" transform="translate(-73 -63)" d="M80.8365 444.384C80.4037 440.151 80.6863 429.486 80.6944 425.017L80.7423 388.398L80.7271 335.857C80.7256 308.038 80.2956 287.065 86.8256 259.766C102.046 193.99 143.041 137.082 200.609 101.812C228.76 84.635 264.006 72.9903 296.711 68.7317C311.76 66.7721 329.209 67.0887 344.362 67.1157L397.969 67.158L602.135 67.1673L834.351 67.0546L906.877 67.145C937.436 67.215 962.443 65.8916 992.413 73.1626C1052.67 87.3483 1104.71 125.13 1136.86 178.033L1136.26 179.135C1172.82 240.117 1173.55 279.156 1173.11 347.318C1168.32 338.996 1171.11 312.199 1170.6 301.408C1170.03 295.87 1165.45 285.119 1165.59 279.783C1166.04 262.231 1155.57 248.273 1153.91 231.799C1152.42 217.057 1152.16 224.029 1145.54 212.857C1135.26 195.528 1121.25 183.66 1108.3 168.472C1106.11 165.902 1099.44 163.027 1096.54 161.129C1095.13 160.206 1090.64 155.748 1088.4 153.97C1086.88 154.445 1087.27 154.282 1085.93 155.049C1084.43 154.344 1084.25 154.278 1082.94 153.285L1082.15 153.214C1073.98 152.407 1065.9 150.137 1057.8 149.27C1053.17 148.775 1043.26 151.169 1040.17 150.692C1030.45 149.192 1028.32 146.915 1020.03 153.917C1019.22 154.603 1010.48 155.815 1009.34 154.405C1008.66 153.502 1008.4 151.803 1008.13 150.572C1007.24 152.933 1008.29 154.56 1006.35 155.078C1004.88 155.469 1001.27 157.319 999.723 157.274C989.876 156.982 980.379 158.312 970.587 158.839C966.765 159.044 963.32 158.89 959.605 159.51C954.345 160.146 945.015 169.663 942.739 169.984C936.41 170.875 925.934 164.224 918.562 166.204C917.228 166.562 913.451 169.204 912.146 170.099C909.738 168.833 908.999 166.061 907.351 163.979C903.285 158.842 892.407 161.299 886.925 162.668C882.92 163.668 878.326 167.012 874.347 168.462C869.818 169.764 864.07 169.172 859.474 172.871C855.401 172.754 850.662 170.398 847.977 170.633C839.618 171.382 831.892 172.905 823.403 172.365C822.462 172.305 817.522 168.009 817.535 168.007C810.603 168.774 804.715 162.547 799.263 161.872C794.678 161.305 787.286 166.885 782.835 167.988C781.231 168.457 773.484 167.655 771.332 167.558C766.483 167.339 761.208 172.015 755.677 172.366C752.277 172.583 745.04 168.996 742.138 168.82C735.747 168.433 727.305 171.552 721.304 168.556C718.439 169.063 711.866 171.066 708.931 170.735C704.702 170.257 702.152 165.284 696.844 165.548C691.075 165.365 681.005 172.016 676.026 171.601C672.137 171.276 658.183 173.739 656.013 173.152C646.149 170.482 646.123 172.661 638.291 174.232C636.127 174.666 623.209 165.99 619.369 166.902C616.426 166.726 612.363 171.846 610.43 172.243C598.666 174.663 585.238 170.86 574.086 176.087C569.445 178.263 566.59 180.65 561.656 178.533C556.865 176.479 551.98 171.293 547.048 169.736C537.957 166.865 537.949 171.534 528.139 167.025C523.531 167.598 522.985 170.276 514.383 169.911C511.051 165.168 511.132 166.262 505.336 165.87C505.082 164.931 504.808 164.092 504.408 163.2C486.697 164.771 482.309 175.705 461.398 165.096C457.127 162.929 451.576 167.546 448.608 167.449C443.217 167.273 438.16 164.834 432.438 164.454C425.45 163.991 423.184 167.424 416.557 168.485C409.793 169.568 404.022 164.339 398.014 167.104C394.165 168.875 392.242 173.443 388.729 175.424C381.691 179.393 382.479 174.875 376.134 180.377C367.894 180.773 355.988 174.498 352.73 175.584C341.58 179.298 330.906 177.791 318.789 178.136C316.724 178.195 307.425 187.496 303.539 184.972C290.064 158.886 293.559 178.516 281.521 178.117C281.817 176.667 281.761 177.105 282.663 175.767L281.886 175.284C280.052 175.807 278.87 177.801 277.62 179.389C272.492 179.515 267.243 179.554 262.376 181.348C258.996 182.594 257.018 183.468 253.487 184.305C247.389 185.751 250.145 189.447 241.909 187.286C233.683 185.127 219.045 187.526 210.715 185.762C209.106 185.422 197.288 176.27 193.108 178.032C185.697 181.156 173.651 188.322 165.471 187.578C162.764 187.332 160.194 186.164 158.146 187.759C151.96 192.578 146.591 197.702 140.32 202.469C136.127 205.655 130.825 207.366 127.476 210.379C126.896 210.902 122.624 217.993 121.961 219.135C118.11 225.775 112.411 232.699 108.33 238.66C101.214 249.058 99.6769 271.914 98.5578 284.412C97.8661 292.136 94.4194 301.075 93.5558 308.89C93.0884 313.119 93.5573 320.003 92.9651 323.805C91.0103 336.357 91.0445 348.373 89.5848 360.961C89.0177 365.853 90.0023 372.948 89.2583 377.378C87.486 387.933 87.0504 398.122 85.4791 408.659C84.981 412 82.3733 415.083 82.3032 416.824C81.9465 425.676 82.1384 435.045 82.0206 443.947C81.6259 444.093 81.2312 444.238 80.8365 444.384Z"/><path fill="#F43116" transform="translate(-73 -63)" d="M1173.11 347.318C1173.55 279.156 1172.82 240.117 1136.26 179.135L1136.86 178.033C1143.33 187.756 1147.87 197.281 1152.8 207.741C1173.64 251.944 1175.85 295.572 1174.31 343.796C1173.38 352.111 1173.87 363.031 1173.86 371.516L1173.82 425.5L1173.47 626.337C1172.25 622.268 1173.13 572.421 1173.15 564.723L1173.16 453.505C1173.17 423.839 1174.07 391.914 1172.04 362.197C1171.76 358.158 1173.34 352.794 1173.11 347.318Z"/><defs><linearGradient id="gradient_2" gradientUnits="userSpaceOnUse" x1="661.00952" y1="1017.2759" x2="610.89905" y2="223.02553"><stop offset="0" stop-color="#EFD8D0"/><stop offset="1" stop-color="#F9F3EF"/></linearGradient></defs><path fill="url(#gradient_2)" transform="translate(-73 -63)" d="M293.742 260.421C293.158 259.816 293.436 260.234 293.23 259.005C299.774 250.29 308.911 241.008 320.51 239.426C323.673 238.995 327.915 240.114 330.635 238.81C333.812 234.45 336.189 232.835 341.902 234.909C343.29 235.412 345.671 240.708 347.612 241.445C351.047 242.748 364.833 245.38 365.882 248.4C406.523 265.339 431.833 280.676 467.16 307.922C475.855 314.718 484.413 321.687 492.828 328.827C500.797 335.663 508.601 342.813 516.502 349.875C522.85 355.547 526.128 357.153 535.084 355.924C543.263 354.676 551.222 352.132 559.255 350.256C571.561 347.396 584.05 345.384 596.632 344.236C623.31 341.762 650.183 342.329 676.732 345.928C686.591 347.441 696.376 349.404 706.055 351.81C712.085 353.269 718.343 355.316 724.51 356.006C727.812 356.375 731.587 356.686 734.714 355.358C741.624 352.422 765.113 329.357 772.756 323.046C804.264 297.025 898.935 227.145 940.609 242.381C952.752 246.821 960.915 258.199 965.965 269.581C990.699 325.332 976.809 424.017 964.8 482.126C962.281 494.201 959.668 506.256 956.96 518.289C954.178 530.591 949.875 542.769 953.626 555.373C962.253 584.353 969.373 614.604 972.199 644.763C972.952 653.653 973.429 662.565 973.629 671.485C973.685 674.5 973.306 699.874 973.588 700.396C973.001 703.696 974.372 702.98 973.542 705.406C972.956 704.858 972.48 704.412 971.92 703.833C970.746 710.576 973.719 716.606 970.937 725.961L971.369 727.05C973.52 727.442 974.841 725.668 978.555 726.003C975.719 727.016 972.822 728.1 969.954 728.998C968.437 738.23 967.072 746.351 964.957 755.439C973.384 755.87 981.881 756.259 990.214 757.666C1010.13 760.774 1046.77 768.293 1062.27 782.942C1069.72 789.981 1061.23 806.48 1050.26 803.47C1042.21 801.858 1031.16 794.061 1023.23 793.157C1020.8 793.822 1013.31 791.109 1010.21 790.347C997.677 787.27 984.881 783.81 971.913 783.101C970.493 800.116 955.672 794.628 955.165 795.801C947.968 812.447 923.31 866.087 910.08 877.639L909.139 879.52C909.313 881.281 909.275 882.763 908.904 884.504C908.814 884.925 908.517 886.164 908.462 886.597C908.313 887.751 908.448 888.923 908.067 890.053C906.766 893.911 903.24 897.862 901.175 901.435C890.974 919.088 881.596 936.613 866.632 950.918C860.397 956.878 852.409 960.898 845.895 966.716C839.606 972.332 833.668 979.585 826.839 984.41C821.893 987.904 815.585 989.234 810.564 992.677C808.077 994.382 806.905 996.693 804.905 998.84C803.005 1000.88 799.307 1002.43 796.767 1003.59C788.834 1007.21 782.46 1014 775.302 1018.98C768.994 1023.38 761.184 1026.42 754.258 1029.81C748.739 1032.51 742.012 1033.04 736.229 1035.26C732.608 1036.66 729.124 1039.96 725.46 1040.8C718.931 1042.3 710.054 1042.2 702.67 1043.8C692.358 1046.03 681.385 1051.81 670.965 1052.29C658.883 1052.84 646.645 1049.01 634.612 1049.89C626.04 1050.52 617.919 1054.71 609.355 1054.48C599.472 1054.22 589.932 1051.34 580.255 1050.08C574.403 1049.32 568.45 1049.54 562.603 1048.61C537.001 1044.51 505.823 1035.12 482.689 1023.42C476.895 1020.49 471.639 1016.52 465.905 1013.44C462.924 1011.84 459.822 1010.09 456.667 1008.86C454.381 1007.98 451.553 1007.81 449.462 1006.54C443.838 1003.13 440.186 996.694 434.794 992.926C431.183 990.403 427.121 988.583 423.517 985.972C406.217 973.437 383.974 952.982 369.71 936.941C366.182 932.973 363.274 928.203 360.243 923.844C355.125 916.482 349.924 909.179 345.104 901.616C340.395 894.227 338.69 890.27 332.635 883.578C327.352 877.741 310.069 847.995 310.815 840.928C311.092 838.304 312.37 834.869 314.438 833.155C315.315 832.429 315.295 832.618 315.78 831.751C315.86 831.609 315.907 831.45 315.971 831.3L316.785 831.04C307.824 811.504 303.351 802.384 296.254 781.356C296.038 779.056 290.141 758.028 289.124 755.587C287.112 746.81 285.383 737.971 283.94 729.082C283.519 723.264 281.404 706.847 280.51 700.857C279.027 662.027 281.612 627.627 290.784 589.757C293.84 570.984 305.777 554.167 301.516 534.841C284.81 459.067 253.359 332.61 293.742 260.421Z"/><path fill="#9A041B" transform="translate(-73 -63)" d="M316.785 831.04C327.184 847.867 332.02 857.89 344.401 874.655C394.32 943.002 467.065 991.212 549.461 1010.55C639.483 1031.92 734.315 1016.15 812.582 966.81C840.734 949.481 866.171 928.089 888.072 903.327C893.152 897.634 897.586 892.12 902.296 886.127C903.788 884.229 907.744 878.933 909.105 877.593L910.08 877.639L909.139 879.52C909.313 881.281 909.275 882.763 908.904 884.504C908.814 884.925 908.517 886.164 908.462 886.597C908.313 887.751 908.448 888.923 908.067 890.053C906.766 893.911 903.24 897.862 901.175 901.435C890.974 919.088 881.596 936.613 866.632 950.918C860.397 956.878 852.409 960.898 845.895 966.716C839.606 972.332 833.668 979.585 826.839 984.41C821.893 987.904 815.585 989.234 810.564 992.677C808.077 994.382 806.905 996.693 804.905 998.84C803.005 1000.88 799.307 1002.43 796.767 1003.59C788.834 1007.21 782.46 1014 775.302 1018.98C768.994 1023.38 761.184 1026.42 754.258 1029.81C748.739 1032.51 742.012 1033.04 736.229 1035.26C732.608 1036.66 729.124 1039.96 725.46 1040.8C718.931 1042.3 710.054 1042.2 702.67 1043.8C692.358 1046.03 681.385 1051.81 670.965 1052.29C658.883 1052.84 646.645 1049.01 634.612 1049.89C626.04 1050.52 617.919 1054.71 609.355 1054.48C599.472 1054.22 589.932 1051.34 580.255 1050.08C574.403 1049.32 568.45 1049.54 562.603 1048.61C537.001 1044.51 505.823 1035.12 482.689 1023.42C476.895 1020.49 471.639 1016.52 465.905 1013.44C462.924 1011.84 459.822 1010.09 456.667 1008.86C454.381 1007.98 451.553 1007.81 449.462 1006.54C443.838 1003.13 440.186 996.694 434.794 992.926C431.183 990.403 427.121 988.583 423.517 985.972C406.217 973.437 383.974 952.982 369.71 936.941C366.182 932.973 363.274 928.203 360.243 923.844C355.125 916.482 349.924 909.179 345.104 901.616C340.395 894.227 338.69 890.27 332.635 883.578C327.352 877.741 310.069 847.995 310.815 840.928C311.092 838.304 312.37 834.869 314.438 833.155C315.315 832.429 315.295 832.618 315.78 831.751C315.86 831.609 315.907 831.45 315.971 831.3L316.785 831.04Z"/><path fill="#F2DFDA" transform="translate(-73 -63)" d="M964.957 755.439C973.384 755.87 981.881 756.259 990.214 757.666C1010.13 760.774 1046.77 768.293 1062.27 782.942C1069.72 789.981 1061.23 806.48 1050.26 803.47C1042.21 801.858 1031.16 794.061 1023.23 793.157C1006.32 786.196 976.074 781.647 957.848 781.2C958.685 776.517 963.408 760.199 964.957 755.439Z"/><path fill="#9A041B" transform="translate(-73 -63)" d="M957.848 781.2C976.074 781.647 1006.32 786.196 1023.23 793.157C1020.8 793.822 1013.31 791.109 1010.21 790.347C997.677 787.27 984.881 783.81 971.913 783.101C970.493 800.116 955.672 794.628 955.165 795.801C947.968 812.447 923.31 866.087 910.08 877.639L909.105 877.593C912.508 871.562 919.742 862.565 923.733 856.031C938.157 832.595 949.616 807.459 957.848 781.2Z"/><path fill="#F43116" transform="translate(-73 -63)" d="M293.742 260.421C293.158 259.816 293.436 260.234 293.23 259.005C299.774 250.29 308.911 241.008 320.51 239.426C323.673 238.995 327.915 240.114 330.635 238.81C333.812 234.45 336.189 232.835 341.902 234.909C343.29 235.412 345.671 240.708 347.612 241.445C351.047 242.748 364.833 245.38 365.882 248.4C348.143 243.343 329.102 234.531 310.392 244.379C302.836 248.356 299.011 253.944 293.742 260.421Z"/><defs><linearGradient id="gradient_3" gradientUnits="userSpaceOnUse" x1="644.84961" y1="958.73578" x2="607.78485" y2="422.42175"><stop offset="0" stop-color="#0D0008"/><stop offset="1" stop-color="#380100"/></linearGradient></defs><path fill="url(#gradient_3)" transform="translate(-73 -63)" d="M620.008 422.521C768.748 418.473 892.517 535.951 896.227 684.7C899.938 833.449 782.18 956.951 633.423 960.325C485.142 963.688 362.12 846.388 358.422 698.115C354.723 549.842 471.744 426.555 620.008 422.521Z"/><defs><linearGradient id="gradient_4" gradientUnits="userSpaceOnUse" x1="630.45605" y1="589.96069" x2="619.0976" y2="917.14941"><stop offset="0" stop-color="#FF9600"/><stop offset="1" stop-color="#FB1D6C"/></linearGradient></defs><path fill="url(#gradient_4)" transform="translate(-73 -63)" d="M590.484 522.018C589.847 507.949 590.3 497.305 600.611 486.188C607.218 479.086 616.386 474.913 626.081 474.594C635.845 474.276 645.32 477.935 652.336 484.733C663.325 495.316 665.137 507.349 663.939 521.886C694.654 540.199 726.584 559.147 756.896 578.002C765.025 570.519 773.121 566.682 784.352 567.211C794.049 567.761 803.132 572.134 809.61 579.371C817.808 588.507 823.254 606.646 817.116 617.922C816.736 619.352 816.241 620.749 815.636 622.099C810.803 633.011 802.597 638.254 791.878 642.08C791.34 678.674 791.77 716.306 791.785 752.95C796.971 754.578 800.905 756.584 805.129 759.985C813.161 766.408 818.214 775.839 819.111 786.084C820.116 796.528 816.89 806.939 810.154 814.984C803.971 822.472 795.01 827.127 785.328 827.88C773.315 828.728 765.18 824.796 756.463 817.146C726.338 834.079 693.457 854.915 663.41 872.936C663.774 876.012 664.038 880.735 663.831 883.785C663.203 893.944 658.513 903.423 650.818 910.086C643.2 916.563 633.269 919.651 623.321 918.637C613.514 917.708 604.507 912.829 598.372 905.121C590.292 895.066 589.65 884.961 591.02 872.842C579.332 866.464 566.979 858.755 555.496 851.878C536.205 840.376 516.973 828.778 497.798 817.083C494.147 820.762 489.776 823.649 484.959 825.561C476.182 828.993 466.41 828.848 457.738 825.157C448.461 821.099 441.223 813.458 437.674 803.974C433.912 793.992 434.297 782.92 438.745 773.224C443.736 762.454 451.624 756.984 462.413 752.983C462.751 716.028 462.776 679.071 462.49 642.115C445.038 636.443 432.854 620.63 435.261 601.909C436.06 591.754 440.556 582.342 448.409 575.751C455.874 569.406 465.6 566.375 475.347 567.353C484.151 568.222 491.516 571.824 497.744 578.096C517.433 565.982 537.191 553.979 557.016 542.089C567.564 535.724 579.836 527.872 590.484 522.018Z"/><defs><linearGradient id="gradient_5" gradientUnits="userSpaceOnUse" x1="627.85059" y1="616.79773" x2="630.94611" y2="475.72641"><stop offset="0" stop-color="#FE8702"/><stop offset="1" stop-color="#FEAB02"/></linearGradient></defs><path fill="url(#gradient_5)" transform="translate(-73 -63)" d="M590.484 522.018C589.847 507.949 590.3 497.305 600.611 486.188C607.218 479.086 616.386 474.913 626.081 474.594C635.845 474.276 645.32 477.935 652.336 484.733C663.325 495.316 665.137 507.349 663.939 521.886C694.654 540.199 726.584 559.147 756.896 578.002C765.025 570.519 773.121 566.682 784.352 567.211C794.049 567.761 803.132 572.134 809.61 579.371C817.808 588.507 823.254 606.646 817.116 617.922L816.362 617.604L815.405 619.938L814.765 620.11L814.414 621.305C814.497 620.263 814.655 618.923 814.324 617.935C812.628 612.872 814.283 608.231 814.84 602.798L814.162 603.036C812.419 606.404 811.433 610.078 810.283 613.711C809.891 610.219 811.376 606.033 810.981 604.637C810.44 602.714 809.213 601.057 807.532 599.979C803.781 601.01 806.246 609.066 803.759 611.659L802.944 609.264C800.871 619.384 791.611 626.395 781.308 625.645C771.005 624.895 762.858 616.617 762.273 606.304C761.517 607.738 761.328 608.304 761.035 609.9C756.46 612.656 752.787 609.182 748.452 610.281C748.193 611.186 747.954 612.022 747.734 612.789L747.387 610.139L746.818 610.896C744.831 606.72 747.439 595.094 748.666 590.662C718.203 572.995 688.1 553.485 657.502 536.048C651.907 543.746 644.62 550.275 634.643 551.167C632.631 550.288 623.153 551.312 619.513 551.169C611.827 550.631 604.508 545.314 599.529 539.696C598.536 538.557 597.579 537.388 596.659 536.19C566.311 554.203 536.224 573.086 505.82 590.9C506.851 594.598 508.226 599.698 508.063 603.575L507.003 603.208C506.548 599.892 506.055 596.581 505.524 593.276C503.02 594.463 504.274 598.616 499.973 598.463C500.27 601.457 502.062 600.308 502.324 603.428C500.803 604.784 501.648 604.568 499.843 604.473C497.528 601.835 498.012 599.539 495.998 598.405C494.188 599.2 494.929 598.611 493.776 600.329C494.148 601.938 494.916 602.599 495.98 603.862L496.011 605.172C493.982 607.215 493.763 607.742 493.304 610.581C492.233 609.204 493.736 604.62 493.148 603.106C492.466 604.337 492.506 604.287 492.252 605.679C491.972 616.979 482.627 625.936 471.325 625.737C460.024 625.538 451 616.258 451.117 604.955C449.685 601.776 450.601 593.332 447.653 592.071C446.806 593.214 447.144 593.187 446.124 593.618C445.186 591.81 443.832 588.484 442.219 587.593C438.334 590.342 438.738 598.523 435.261 601.909C436.06 591.754 440.556 582.342 448.409 575.751C455.874 569.406 465.6 566.375 475.347 567.353C484.151 568.222 491.516 571.824 497.744 578.096C517.433 565.982 537.191 553.979 557.016 542.089C567.564 535.724 579.836 527.872 590.484 522.018Z"/><path fill="#1E0002" transform="translate(-73 -63)" d="M451.117 604.955C451.236 593.536 460.632 584.4 472.05 584.601C483.467 584.802 492.536 594.264 492.252 605.679C491.972 616.979 482.627 625.936 471.325 625.737C460.024 625.538 451 616.258 451.117 604.955Z"/><path fill="#1E0002" transform="translate(-73 -63)" d="M762.273 606.304C761.82 598.333 766.022 590.821 773.051 587.035C780.079 583.249 788.664 583.874 795.071 588.638C801.477 593.402 804.547 601.443 802.944 609.264C800.871 619.384 791.611 626.395 781.308 625.645C771.005 624.895 762.858 616.617 762.273 606.304Z"/><path fill="#1E0002" transform="translate(-73 -63)" d="M625.222 492.377C636.689 491.304 646.89 499.642 648.12 511.093C649.349 522.544 641.151 532.858 629.718 534.243C622.182 535.157 614.738 531.943 610.234 525.832C605.731 519.721 604.865 511.66 607.969 504.732C611.073 497.805 617.665 493.084 625.222 492.377Z"/><path fill="#1E0002" transform="translate(-73 -63)" d="M596.659 536.19C597.579 537.388 598.536 538.557 599.529 539.696C604.508 545.314 611.827 550.631 619.513 551.169C623.153 551.312 632.631 550.288 634.643 551.167C634.064 557.324 634.433 565.802 634.383 572.189C634.273 586.028 634.633 599.954 634.347 613.807C630.246 607.011 636.081 595.318 630.472 591.9C629.12 593.199 629.519 593.223 629.113 595.491C626.97 594.867 625.278 592.034 622.727 590.332L621.742 590.679C619.782 599.844 622.614 613.499 619.746 625.275C619.317 633.682 619.682 645.4 619.681 654.065C607.573 656.786 601.694 660.763 593.455 669.709C566.64 652.73 534.124 633.394 506.587 617.355C507.951 612.241 508.307 608.781 508.063 603.575C508.226 599.698 506.851 594.598 505.82 590.9C536.224 573.086 566.311 554.203 596.659 536.19Z"/><path fill="#FD8B01" transform="translate(-73 -63)" d="M619.513 551.169C623.153 551.312 632.631 550.288 634.643 551.167C634.064 557.324 634.433 565.802 634.383 572.189C634.273 586.028 634.633 599.954 634.347 613.807C630.246 607.011 636.081 595.318 630.472 591.9C629.12 593.199 629.519 593.223 629.113 595.491C626.97 594.867 625.278 592.034 622.727 590.332L621.742 590.679C619.782 599.844 622.614 613.499 619.746 625.275C619.135 601.932 620.809 573.76 619.513 551.169Z"/><path fill="#1E0002" transform="translate(-73 -63)" d="M657.502 536.048C688.1 553.485 718.203 572.995 748.666 590.662C747.439 595.094 744.831 606.72 746.818 610.896C747.076 613.142 747.302 615.321 747.685 617.55C719.633 633.116 688.473 652.893 660.843 669.619C651.508 660.137 647.353 657.237 634.419 654C634.434 640.772 634.649 626.993 634.347 613.807C634.633 599.954 634.273 586.028 634.383 572.189C634.433 565.802 634.064 557.324 634.643 551.167C644.62 550.275 651.907 543.746 657.502 536.048Z"/><path fill="#1E0002" transform="translate(-73 -63)" d="M754.774 630.583C755.522 630.997 758.134 633.506 759.049 634.23C765.344 639.214 769.111 641.203 777.024 642.7L777.079 752.175C765.766 754.645 761.627 757.1 754.038 765.68L712.662 740.861C698.1 731.926 682.814 723.372 668.491 714.236C671.456 702.77 671.634 694.154 668.082 682.86C696.736 665.171 726.208 648.382 754.774 630.583Z"/><path fill="#1E0002" transform="translate(-73 -63)" d="M499.464 630.525C527.762 646.813 557.85 665.77 586.018 682.779C582.341 695.069 582.774 702.222 585.826 714.47C570.614 723.381 555.472 732.412 540.403 741.563L500.508 765.529C492.618 757.233 488.515 754.772 477.274 752.21L477.396 642.986C487.091 640.714 492.542 637.713 499.464 630.525Z"/><path fill="#1E0002" transform="translate(-73 -63)" d="M592.482 727.97C595.955 728.79 603.653 740.168 619.706 743.076L619.691 843.811C608.974 846.067 603.469 850.609 597.11 858.859L556.295 834.44C539.991 825.334 522.464 813.882 505.977 804.293C508.671 795.533 509.185 787.967 506.949 779.067C535.068 761.884 564.152 745.008 592.482 727.97Z"/><path fill="#1E0002" transform="translate(-73 -63)" d="M660.914 727.864C663.197 728.44 683.602 741.025 686.846 742.974L747.141 779.048C745.453 788.715 745.751 794.908 748.357 804.222C732.715 812.661 713.703 824.757 698.215 834.006L657.399 858.696C651.379 850.687 644.552 845.747 634.486 843.995L634.415 743.249C646.516 740.784 652.696 736.887 660.914 727.864Z"/><path fill="#1E0002" transform="translate(-73 -63)" d="M623.525 671.053C638.766 669.106 652.719 679.831 654.755 695.061C656.792 710.29 646.147 724.305 630.93 726.431C615.587 728.573 601.43 717.822 599.377 702.466C597.324 687.111 608.158 673.017 623.525 671.053Z"/><path fill="#1E0002" transform="translate(-73 -63)" d="M625.086 860.206C636.415 859.068 646.539 867.284 647.758 878.605C648.977 889.925 640.833 900.108 629.522 901.408C618.096 902.721 607.786 894.476 606.555 883.041C605.324 871.605 613.642 861.355 625.086 860.206Z"/><path fill="#1E0002" transform="translate(-73 -63)" d="M778.462 769.62C789.674 767.334 800.606 774.601 802.839 785.824C805.072 797.046 797.753 807.945 786.52 810.125C775.362 812.29 764.552 805.031 762.334 793.883C760.116 782.735 767.324 771.89 778.462 769.62Z"/><path fill="#1E0002" transform="translate(-73 -63)" d="M467.858 769.602C478.993 767.475 489.76 774.73 491.968 785.85C494.175 796.97 486.997 807.789 475.893 810.077C464.676 812.388 453.723 805.12 451.492 793.886C449.262 782.653 456.608 771.752 467.858 769.602Z"/><path fill="#F43116" transform="translate(-73 -63)" d="M341.657 298.25C342.928 298.079 344.209 297.995 345.492 297.999C352.702 297.953 362.531 302.197 368.946 305.426C398.096 320.103 423.213 339.133 446.135 362.28C468.62 384.988 450.872 387.694 432.562 400.6C419.586 409.746 405.548 419.414 393.659 430.026C387.099 435.777 380.768 441.784 374.679 448.032C366.669 456.194 359.438 465.888 350.755 472.991C347.899 475.328 339.613 472.312 338.258 467.365C324.584 417.444 315.334 360.514 331.428 310.105C333.245 304.416 336.291 300.674 341.657 298.25Z"/><path fill="#F43116" transform="translate(-73 -63)" d="M904.974 298.269C908.83 298.116 913.342 297.72 916.582 300.13C924.375 305.927 928.515 326.458 929.732 335.465C934.862 373.433 930.193 411.749 921.67 448.871C919.82 455.902 918.74 464.349 914.834 470.527C913.128 473.225 906.085 474.166 903.628 472.094C897.254 466.72 891.958 459.662 886.31 453.418C880.55 447.122 874.544 441.056 868.306 435.234C855.645 423.574 842.227 412.765 828.14 402.876C823.024 399.277 803.928 387.801 801.956 383.096C798.14 373.99 813.108 360.255 819.885 354.22C841.026 335.392 877.321 305.148 904.974 298.269Z"/><path fill="#F2DFDA" transform="translate(-73 -63)" d="M253.737 759.38C267.178 757.949 274.764 755.935 289.124 755.587C290.141 758.028 296.038 779.056 296.254 781.356C303.351 802.384 307.824 811.504 316.785 831.04L315.971 831.3C314.828 829.907 311.114 821.598 309.582 818.873L309.36 819.632C307.601 820.783 305.472 821 303.374 821.413C300.38 819.85 300.194 819.727 298.515 816.741C294.924 810.358 293.04 808.936 298.912 802.24L301.816 802.369L302.368 801.791C301.455 798.777 301.338 795.735 297.965 795.268C295.669 796.417 293.81 800.108 292.432 802.372C285.537 801.241 272.659 802.082 273.389 792.347C273.539 790.346 276.357 786.66 277.549 784.896L277.321 783.915C260.276 783.892 227.276 794.041 211.978 801.541L211.158 801.104C202.83 805.354 193.499 805.049 190.296 794.715C189.297 791.528 189.639 788.072 191.244 785.143C198.253 772.373 240.063 763.364 253.737 759.38Z"/><path fill="#9A041B" transform="translate(-73 -63)" d="M296.254 781.356C303.351 802.384 307.824 811.504 316.785 831.04L315.971 831.3C314.828 829.907 311.114 821.598 309.582 818.873L309.36 819.632C307.601 820.783 305.472 821 303.374 821.413C300.38 819.85 300.194 819.727 298.515 816.741C294.924 810.358 293.04 808.936 298.912 802.24L301.816 802.369L302.368 801.791C301.455 798.777 301.338 795.735 297.965 795.268C295.669 796.417 293.81 800.108 292.432 802.372C285.537 801.241 272.659 802.082 273.389 792.347C273.539 790.346 276.357 786.66 277.549 784.896L277.321 783.915C260.276 783.892 227.276 794.041 211.978 801.541L211.158 801.104C212.226 799.392 219.825 796.716 222.151 795.836C245.908 787.04 270.933 782.149 296.254 781.356Z"/><path fill="#F2DFDA" transform="translate(-73 -63)" d="M196.299 713.908C196.267 713.878 196.241 713.842 196.203 713.819C192.619 711.679 189.72 709.609 187.63 705.823C186.191 703.216 186.07 700.445 186.902 697.624C188.027 693.809 190.055 691.045 193.655 689.247C208.886 681.642 263.32 695.617 280.51 700.857C281.404 706.847 283.519 723.264 283.94 729.082C285.383 737.971 287.112 746.81 289.124 755.587C274.764 755.935 267.178 757.949 253.737 759.38C257.47 755.324 283.992 756.516 286.944 752.777C286.857 751.415 284.245 736.703 283.876 734.901C282.259 735.662 281.342 739.98 277.97 740.644C272.425 737.46 275.51 734.168 275.938 728.996C271.579 722.817 225.656 716.737 216.575 715.936C210.905 715.436 200.486 715.935 195.708 714.407L196.299 713.908Z"/><path fill="#9A041B" transform="translate(-73 -63)" d="M196.299 713.908C231.004 714.189 251.483 719.092 283.94 729.082C285.383 737.971 287.112 746.81 289.124 755.587C274.764 755.935 267.178 757.949 253.737 759.38C257.47 755.324 283.992 756.516 286.944 752.777C286.857 751.415 284.245 736.703 283.876 734.901C282.259 735.662 281.342 739.98 277.97 740.644C272.425 737.46 275.51 734.168 275.938 728.996C271.579 722.817 225.656 716.737 216.575 715.936C210.905 715.436 200.486 715.935 195.708 714.407L196.299 713.908Z"/><path fill="#F2DFDA" transform="translate(-73 -63)" d="M973.588 700.396C990.869 695.759 1047.28 680.652 1061.95 689.593C1064.79 691.328 1066.81 694.029 1067.54 697.293C1068.34 700.898 1067.75 704.843 1065.7 707.942C1063.69 711.005 1060.85 712.839 1057.27 713.491C1052.32 714.391 1046.85 714.131 1041.81 714.425C1027.87 715.238 1011.37 716.32 998.19 720.954C992.944 721.914 981.532 725.635 978.555 726.003C974.841 725.668 973.52 727.442 971.369 727.05L970.937 725.961C973.719 716.606 970.746 710.576 971.92 703.833C972.48 704.412 972.956 704.858 973.542 705.406C974.372 702.98 973.001 703.696 973.588 700.396Z"/><path fill="#9A041B" transform="translate(-73 -63)" d="M978.555 726.003C981.532 725.635 992.944 721.914 998.19 720.954L999.119 721.739C994.122 722.498 974.373 727.714 970.914 730.773C969.255 735.18 971.932 739 971.175 740.333C969.148 743.905 966.682 749.257 967.111 754.064C971.531 755.145 989.836 755.214 991.933 757.38L992.808 757.056L992.793 757.527L991.736 757.138L991.316 757.754L990.214 757.666C981.881 756.259 973.384 755.87 964.957 755.439C967.072 746.351 968.437 738.23 969.954 728.998C972.822 728.1 975.719 727.016 978.555 726.003Z"/></g></svg>