<svg xmlns="http://www.w3.org/2000/svg" viewBox="0 0 120 120" fill="none">
  <rect width="120" height="120" rx="24" fill="#151927"/>
  <path d="M60 20C38.3 20 20 38.3 20 60s18.3 40 40 40 40-18.3 40-40S81.7 20 60 20z" fill="#8B5CF6" opacity=".15"/>
  <path d="M60 28C42.3 28 28 42.3 28 60s14.3 32 32 32 32-14.3 32-32S77.7 28 60 28z" fill="#8B5CF6" opacity=".25"/>
  <path d="M60 36c-13.3 0-24 10.7-24 24s10.7 24 24 24 24-10.7 24-24-10.7-24-24-24z" fill="#8B5CF6" opacity=".35"/>
  <path d="M50 55c-3.3 0-6 2.7-6 6v8c0 3.3 2.7 6 6 6h20c3.3 0 6-2.7 6-6v-8c0-3.3-2.7-6-6-6H50z" fill="#A855F7"/>
  <path d="M54 55v-6c0-3.3 2.7-6 6-6s6 2.7 6 6v6" stroke="#C084FC" stroke-width="2" fill="none"/>
  <circle cx="60" cy="63" r="4" fill="#151927"/>
  <path d="M58 59h4l-1 5h-2z" fill="#C084FC"/>
  <path d="M70 42l6-8M76 44l-8-6" stroke="#8B5CF6" stroke-width="1.5" stroke-linecap="round" opacity=".5"/>
</svg>
